<mxfile host="app.diagrams.net" agent="Mozilla/5.0 (Windows NT 10.0; Win64; x64) AppleWebKit/537.36 (KHTML, like Gecko) Chrome/134.0.0.0 Safari/537.36" version="26.2.2">
  <diagram name="第 1 页" id="ckXU77YoqmDIUU78AjOm">
    <mxGraphModel dx="1428" dy="785" grid="1" gridSize="10" guides="1" tooltips="1" connect="1" arrows="1" fold="1" page="1" pageScale="1" pageWidth="827" pageHeight="1169" math="0" shadow="0">
      <root>
        <mxCell id="0" />
        <mxCell id="1" parent="0" />
        <mxCell id="xxR7MleeMMk6MXEtW_TR-1" value="用户" style="shape=umlLifeline;perimeter=lifelinePerimeter;whiteSpace=wrap;container=1;dropTarget=0;collapsible=0;recursiveResize=0;outlineConnect=0;portConstraint=eastwest;newEdgeStyle={&quot;edgeStyle&quot;:&quot;elbowEdgeStyle&quot;,&quot;elbow&quot;:&quot;vertical&quot;,&quot;curved&quot;:0,&quot;rounded&quot;:0};size=65;" vertex="1" parent="1">
          <mxGeometry x="20" y="20" width="150" height="1282" as="geometry" />
        </mxCell>
        <mxCell id="xxR7MleeMMk6MXEtW_TR-2" value="GQC APP端" style="shape=umlLifeline;perimeter=lifelinePerimeter;whiteSpace=wrap;container=1;dropTarget=0;collapsible=0;recursiveResize=0;outlineConnect=0;portConstraint=eastwest;newEdgeStyle={&quot;edgeStyle&quot;:&quot;elbowEdgeStyle&quot;,&quot;elbow&quot;:&quot;vertical&quot;,&quot;curved&quot;:0,&quot;rounded&quot;:0};size=65;" vertex="1" parent="1">
          <mxGeometry x="220" y="20" width="150" height="1282" as="geometry" />
        </mxCell>
        <mxCell id="xxR7MleeMMk6MXEtW_TR-4" value="GQC PC端" style="shape=umlLifeline;perimeter=lifelinePerimeter;whiteSpace=wrap;container=1;dropTarget=0;collapsible=0;recursiveResize=0;outlineConnect=0;portConstraint=eastwest;newEdgeStyle={&quot;edgeStyle&quot;:&quot;elbowEdgeStyle&quot;,&quot;elbow&quot;:&quot;vertical&quot;,&quot;curved&quot;:0,&quot;rounded&quot;:0};size=65;" vertex="1" parent="1">
          <mxGeometry x="620" y="20" width="150" height="1282" as="geometry" />
        </mxCell>
        <mxCell id="xxR7MleeMMk6MXEtW_TR-5" value="设备联机" style="shape=umlLifeline;perimeter=lifelinePerimeter;whiteSpace=wrap;container=1;dropTarget=0;collapsible=0;recursiveResize=0;outlineConnect=0;portConstraint=eastwest;newEdgeStyle={&quot;edgeStyle&quot;:&quot;elbowEdgeStyle&quot;,&quot;elbow&quot;:&quot;vertical&quot;,&quot;curved&quot;:0,&quot;rounded&quot;:0};size=65;" vertex="1" parent="1">
          <mxGeometry x="820" y="20" width="150" height="1282" as="geometry" />
        </mxCell>
        <mxCell id="xxR7MleeMMk6MXEtW_TR-6" value="odoo" style="shape=umlLifeline;perimeter=lifelinePerimeter;whiteSpace=wrap;container=1;dropTarget=0;collapsible=0;recursiveResize=0;outlineConnect=0;portConstraint=eastwest;newEdgeStyle={&quot;edgeStyle&quot;:&quot;elbowEdgeStyle&quot;,&quot;elbow&quot;:&quot;vertical&quot;,&quot;curved&quot;:0,&quot;rounded&quot;:0};size=65;" vertex="1" parent="1">
          <mxGeometry x="1020" y="20" width="150" height="1282" as="geometry" />
        </mxCell>
        <mxCell id="xxR7MleeMMk6MXEtW_TR-7" value="启动验机流程" style="verticalAlign=bottom;edgeStyle=elbowEdgeStyle;elbow=vertical;curved=0;rounded=0;endArrow=block;" edge="1" parent="1" source="xxR7MleeMMk6MXEtW_TR-1" target="xxR7MleeMMk6MXEtW_TR-2">
          <mxGeometry relative="1" as="geometry">
            <Array as="points">
              <mxPoint x="204" y="127" />
            </Array>
          </mxGeometry>
        </mxCell>
        <mxCell id="xxR7MleeMMk6MXEtW_TR-8" value="请求设备信息读取" style="verticalAlign=bottom;edgeStyle=elbowEdgeStyle;elbow=vertical;curved=0;rounded=0;endArrow=block;" edge="1" parent="1" source="xxR7MleeMMk6MXEtW_TR-2" target="xxR7MleeMMk6MXEtW_TR-5">
          <mxGeometry relative="1" as="geometry">
            <Array as="points">
              <mxPoint x="604" y="179" />
            </Array>
          </mxGeometry>
        </mxCell>
        <mxCell id="xxR7MleeMMk6MXEtW_TR-9" value="返回设备信息" style="verticalAlign=bottom;edgeStyle=elbowEdgeStyle;elbow=vertical;curved=0;rounded=0;dashed=1;dashPattern=2 3;endArrow=block;" edge="1" parent="1" source="xxR7MleeMMk6MXEtW_TR-5" target="xxR7MleeMMk6MXEtW_TR-2">
          <mxGeometry relative="1" as="geometry">
            <Array as="points">
              <mxPoint x="607" y="231" />
            </Array>
          </mxGeometry>
        </mxCell>
        <mxCell id="xxR7MleeMMk6MXEtW_TR-10" value="执行模块测试(Face ID/GPS/摄像头等)" style="curved=1;endArrow=block;rounded=0;" edge="1" parent="1" source="xxR7MleeMMk6MXEtW_TR-2" target="xxR7MleeMMk6MXEtW_TR-2">
          <mxGeometry relative="1" as="geometry">
            <Array as="points">
              <mxPoint x="346" y="283" />
              <mxPoint x="346" y="313" />
            </Array>
          </mxGeometry>
        </mxCell>
        <mxCell id="xxR7MleeMMk6MXEtW_TR-11" value="发送测试数据" style="verticalAlign=bottom;edgeStyle=elbowEdgeStyle;elbow=vertical;curved=0;rounded=0;endArrow=block;" edge="1" parent="1" source="xxR7MleeMMk6MXEtW_TR-2" target="xxR7MleeMMk6MXEtW_TR-4">
          <mxGeometry relative="1" as="geometry">
            <Array as="points">
              <mxPoint x="504" y="365" />
            </Array>
          </mxGeometry>
        </mxCell>
        <mxCell id="xxR7MleeMMk6MXEtW_TR-12" value="请求验机规则" style="verticalAlign=bottom;edgeStyle=elbowEdgeStyle;elbow=vertical;curved=0;rounded=0;endArrow=block;" edge="1" parent="1" source="xxR7MleeMMk6MXEtW_TR-4" target="xxR7MleeMMk6MXEtW_TR-6">
          <mxGeometry relative="1" as="geometry">
            <Array as="points">
              <mxPoint x="904" y="417" />
            </Array>
          </mxGeometry>
        </mxCell>
        <mxCell id="xxR7MleeMMk6MXEtW_TR-13" value="返回验机规则" style="verticalAlign=bottom;edgeStyle=elbowEdgeStyle;elbow=vertical;curved=0;rounded=0;dashed=1;dashPattern=2 3;endArrow=block;" edge="1" parent="1" source="xxR7MleeMMk6MXEtW_TR-6" target="xxR7MleeMMk6MXEtW_TR-4">
          <mxGeometry relative="1" as="geometry">
            <Array as="points">
              <mxPoint x="907" y="469" />
            </Array>
          </mxGeometry>
        </mxCell>
        <mxCell id="xxR7MleeMMk6MXEtW_TR-14" value="反馈验机状态" style="verticalAlign=bottom;edgeStyle=elbowEdgeStyle;elbow=vertical;curved=0;rounded=0;endArrow=block;" edge="1" parent="1" source="xxR7MleeMMk6MXEtW_TR-4" target="xxR7MleeMMk6MXEtW_TR-2">
          <mxGeometry relative="1" as="geometry">
            <Array as="points">
              <mxPoint x="507" y="521" />
            </Array>
          </mxGeometry>
        </mxCell>
        <mxCell id="xxR7MleeMMk6MXEtW_TR-15" value="显示测试结果" style="verticalAlign=bottom;edgeStyle=elbowEdgeStyle;elbow=vertical;curved=0;rounded=0;endArrow=block;" edge="1" parent="1" source="xxR7MleeMMk6MXEtW_TR-2" target="xxR7MleeMMk6MXEtW_TR-1">
          <mxGeometry relative="1" as="geometry">
            <Array as="points">
              <mxPoint x="207" y="573" />
            </Array>
          </mxGeometry>
        </mxCell>
        <mxCell id="xxR7MleeMMk6MXEtW_TR-16" value="触发成色检测" style="verticalAlign=bottom;edgeStyle=elbowEdgeStyle;elbow=vertical;curved=0;rounded=0;endArrow=block;" edge="1" parent="1" source="xxR7MleeMMk6MXEtW_TR-1" target="xxR7MleeMMk6MXEtW_TR-5">
          <mxGeometry relative="1" as="geometry">
            <Array as="points">
              <mxPoint x="504" y="625" />
            </Array>
          </mxGeometry>
        </mxCell>
        <mxCell id="xxR7MleeMMk6MXEtW_TR-17" value="启动电流检测" style="verticalAlign=bottom;edgeStyle=elbowEdgeStyle;elbow=vertical;curved=0;rounded=0;endArrow=block;" edge="1" parent="1" source="xxR7MleeMMk6MXEtW_TR-5">
          <mxGeometry relative="1" as="geometry">
            <Array as="points">
              <mxPoint x="707" y="677" />
            </Array>
            <mxPoint x="494.5" y="677" as="targetPoint" />
          </mxGeometry>
        </mxCell>
        <mxCell id="xxR7MleeMMk6MXEtW_TR-18" value="返回检测数据" style="verticalAlign=bottom;edgeStyle=elbowEdgeStyle;elbow=vertical;curved=0;rounded=0;dashed=1;dashPattern=2 3;endArrow=block;" edge="1" parent="1" target="xxR7MleeMMk6MXEtW_TR-5">
          <mxGeometry relative="1" as="geometry">
            <Array as="points">
              <mxPoint x="704" y="729" />
            </Array>
            <mxPoint x="494.5" y="729" as="sourcePoint" />
          </mxGeometry>
        </mxCell>
        <mxCell id="xxR7MleeMMk6MXEtW_TR-19" value="查询ID锁/网络锁" style="verticalAlign=bottom;edgeStyle=elbowEdgeStyle;elbow=vertical;curved=0;rounded=0;endArrow=block;" edge="1" parent="1" source="xxR7MleeMMk6MXEtW_TR-5" target="xxR7MleeMMk6MXEtW_TR-6">
          <mxGeometry relative="1" as="geometry">
            <Array as="points">
              <mxPoint x="1004" y="781" />
            </Array>
          </mxGeometry>
        </mxCell>
        <mxCell id="xxR7MleeMMk6MXEtW_TR-20" value="返回锁定状态" style="verticalAlign=bottom;edgeStyle=elbowEdgeStyle;elbow=vertical;curved=0;rounded=0;dashed=1;dashPattern=2 3;endArrow=block;" edge="1" parent="1" source="xxR7MleeMMk6MXEtW_TR-6" target="xxR7MleeMMk6MXEtW_TR-5">
          <mxGeometry relative="1" as="geometry">
            <Array as="points">
              <mxPoint x="1007" y="833" />
            </Array>
          </mxGeometry>
        </mxCell>
        <mxCell id="xxR7MleeMMk6MXEtW_TR-21" value="生成检测登记" style="verticalAlign=bottom;edgeStyle=elbowEdgeStyle;elbow=vertical;curved=0;rounded=0;endArrow=block;" edge="1" parent="1" source="xxR7MleeMMk6MXEtW_TR-5" target="xxR7MleeMMk6MXEtW_TR-4">
          <mxGeometry relative="1" as="geometry">
            <Array as="points">
              <mxPoint x="807" y="885" />
            </Array>
          </mxGeometry>
        </mxCell>
        <mxCell id="xxR7MleeMMk6MXEtW_TR-22" value="存储验机报告" style="verticalAlign=bottom;edgeStyle=elbowEdgeStyle;elbow=vertical;curved=0;rounded=0;endArrow=block;" edge="1" parent="1" source="xxR7MleeMMk6MXEtW_TR-4" target="xxR7MleeMMk6MXEtW_TR-6">
          <mxGeometry relative="1" as="geometry">
            <Array as="points">
              <mxPoint x="904" y="937" />
            </Array>
          </mxGeometry>
        </mxCell>
        <mxCell id="xxR7MleeMMk6MXEtW_TR-23" value="触发标签打印" style="verticalAlign=bottom;edgeStyle=elbowEdgeStyle;elbow=vertical;curved=0;rounded=0;endArrow=block;" edge="1" parent="1" source="xxR7MleeMMk6MXEtW_TR-4" target="xxR7MleeMMk6MXEtW_TR-5">
          <mxGeometry relative="1" as="geometry">
            <Array as="points">
              <mxPoint x="804" y="989" />
            </Array>
          </mxGeometry>
        </mxCell>
        <mxCell id="xxR7MleeMMk6MXEtW_TR-24" value="请求恢复出厂设置" style="verticalAlign=bottom;edgeStyle=elbowEdgeStyle;elbow=vertical;curved=0;rounded=0;endArrow=block;" edge="1" parent="1" source="xxR7MleeMMk6MXEtW_TR-1" target="xxR7MleeMMk6MXEtW_TR-4">
          <mxGeometry relative="1" as="geometry">
            <Array as="points">
              <mxPoint x="404" y="1041" />
            </Array>
          </mxGeometry>
        </mxCell>
        <mxCell id="xxR7MleeMMk6MXEtW_TR-25" value="执行恢复操作" style="verticalAlign=bottom;edgeStyle=elbowEdgeStyle;elbow=vertical;curved=0;rounded=0;endArrow=block;" edge="1" parent="1" source="xxR7MleeMMk6MXEtW_TR-4" target="xxR7MleeMMk6MXEtW_TR-5">
          <mxGeometry relative="1" as="geometry">
            <Array as="points">
              <mxPoint x="804" y="1093" />
            </Array>
          </mxGeometry>
        </mxCell>
        <mxCell id="xxR7MleeMMk6MXEtW_TR-26" value="返回恢复结果" style="verticalAlign=bottom;edgeStyle=elbowEdgeStyle;elbow=vertical;curved=0;rounded=0;dashed=1;dashPattern=2 3;endArrow=block;" edge="1" parent="1" source="xxR7MleeMMk6MXEtW_TR-5" target="xxR7MleeMMk6MXEtW_TR-4">
          <mxGeometry relative="1" as="geometry">
            <Array as="points">
              <mxPoint x="807" y="1145" />
            </Array>
          </mxGeometry>
        </mxCell>
        <mxCell id="xxR7MleeMMk6MXEtW_TR-27" value="显示操作完成" style="verticalAlign=bottom;edgeStyle=elbowEdgeStyle;elbow=vertical;curved=0;rounded=0;endArrow=block;" edge="1" parent="1" source="xxR7MleeMMk6MXEtW_TR-4" target="xxR7MleeMMk6MXEtW_TR-1">
          <mxGeometry relative="1" as="geometry">
            <Array as="points">
              <mxPoint x="407" y="1197" />
            </Array>
          </mxGeometry>
        </mxCell>
      </root>
    </mxGraphModel>
  </diagram>
</mxfile>
